<svg id="Layer_1" data-name="Layer 1" xmlns="http://www.w3.org/2000/svg" viewBox="0 0 72 72"><path id="Icon_awesome-file-signature" data-name="Icon awesome-file-signature" d="M27.92,55.44a1.29,1.29,0,0,0-1.17-.75,1.26,1.26,0,0,0-1.15.72l-.89,1.77a1.84,1.84,0,0,1-2.48.83,1.89,1.89,0,0,1-.93-1.07L19.35,51.1l-1.22,3.69a5,5,0,0,1-4.75,3.41H11.94a1.85,1.85,0,1,1,0-3.7h1.44a1.28,1.28,0,0,0,1.23-.88l2.1-6.32a2.77,2.77,0,0,1,5.26,0l1.61,4.82a5.19,5.19,0,0,1,7.26,1.07,4.28,4.28,0,0,1,.37.57,1.33,1.33,0,0,0,1.09.73V45l14.8-14.7V24.9H31.37a2.78,2.78,0,0,1-2.77-2.78V6.39H5.47A2.78,2.78,0,0,0,2.69,9.15V62.83a2.78,2.78,0,0,0,2.76,2.78H44.33a2.77,2.77,0,0,0,2.77-2.77h0V58.2H32.3A5,5,0,0,1,27.92,55.44ZM47.1,20.49a2.76,2.76,0,0,0-.81-1.95L35,7.2a2.78,2.78,0,0,0-2-.81h-.7V21.2H47.1ZM36,46.53v8h8l18.7-18.83-7.85-7.84ZM68.44,25.75l-3.68-3.69a3,3,0,0,0-4.17,0l-3.15,3.15,7.85,7.85,3.15-3.15a2.94,2.94,0,0,0,0-4.16h0Z"/></svg>